<svg width="175" height="33" viewBox="0 0 175 33" fill="none" xmlns="http://www.w3.org/2000/svg">
<path d="M22.9556 5.0597C23.6127 5.21456 24.2489 5.44731 24.8508 5.75299C25.6836 6.18353 26.4593 6.71653 27.1597 7.33955C28.2629 6.95842 29.4223 6.76464 30.5897 6.76626C31.1762 6.76464 31.7615 6.81821 32.338 6.92625C32.0044 6.44628 31.6574 5.97964 31.2703 5.52634C29.9587 4.00284 28.3631 2.74855 26.5724 1.83325C25.04 1.0679 23.3704 0.614688 21.661 0.5V5.19303C22.1223 5.29079 22.5703 5.44295 22.9956 5.64633L22.9556 5.0597Z" fill="white"/>
<path d="M26.7726 25.6717C26.1292 26.1904 25.431 26.6375 24.6906 27.0049C23.3365 27.6484 21.8524 27.9723 20.353 27.9515C18.8484 27.952 17.3639 27.6052 16.0155 26.9383C14.713 26.2812 13.5522 25.3752 12.5988 24.2718C11.6333 23.1841 10.8857 21.9213 10.3967 20.552C9.88188 19.1839 9.61961 17.7339 9.62261 16.2723C9.61171 13.3137 10.6954 10.4553 12.6656 8.24616C13.6332 7.17446 14.8034 6.30449 16.1089 5.68633C16.609 5.45823 17.1267 5.27097 17.6571 5.12637V5.72633C18.1212 5.48561 18.6147 5.30633 19.1252 5.19303V0.5C17.5054 0.634434 15.9232 1.05895 14.454 1.75325C12.6436 2.60404 11.0232 3.81014 9.68934 5.29969C8.34115 6.80916 7.27441 8.54759 6.53962 10.4327C5.77996 12.3647 5.39498 14.4233 5.40519 16.499C5.40755 18.5241 5.76904 20.5328 6.47289 22.4319C7.16855 24.3154 8.20449 26.0552 9.52919 27.5649C10.854 29.0611 12.459 30.2839 14.2538 31.1647C16.1549 32.0784 18.2437 32.535 20.353 32.4979C22.4253 32.5082 24.4734 32.0525 26.3455 31.1647C28.1379 30.3255 29.7512 29.1485 31.0968 27.6982C31.5097 27.2304 31.8973 26.7408 32.2579 26.2317C31.707 26.3279 31.1489 26.377 30.5896 26.3783C29.2846 26.3796 27.9905 26.14 26.7726 25.6717Z" fill="white"/>
<path d="M23.6763 23.7785C22.6493 22.8767 21.8257 21.7675 21.2597 20.5241C20.6937 19.2807 20.3984 17.9315 20.3931 16.5656C20.3931 16.3656 20.3931 16.1657 20.3931 15.9657C19.03 15.989 17.7053 15.514 16.6682 14.6301C15.631 13.7463 14.9528 12.5143 14.761 11.166C14.3113 11.8271 13.9606 12.5502 13.72 13.3125C13.4025 14.2946 13.2404 15.3202 13.2395 16.3523C13.2342 17.4121 13.4009 18.4657 13.7333 19.4721C14.0471 20.4412 14.5356 21.3449 15.1747 22.1386C15.7893 22.9063 16.5575 23.5375 17.4302 23.9918C18.3486 24.4537 19.3651 24.6869 20.3931 24.6718C21.4431 24.6883 22.4803 24.4407 23.4094 23.9518C23.6905 23.7942 23.9623 23.6205 24.2235 23.4319L23.6763 23.7785Z" fill="white"/>
<path d="M12.2119 8.79275C12.0384 9.00607 11.8782 9.23272 11.7181 9.45937C11.8782 9.23272 12.0117 9.00607 12.2119 8.79275Z" fill="white"/>
<path d="M11.0508 10.5394C10.9708 10.7127 10.8773 10.8727 10.7972 11.0327L11.0508 10.5394Z" fill="white"/>
<path d="M14.6809 26.2183C14.4139 26.045 14.1603 25.8584 13.9201 25.6717C14.2137 25.8317 14.4673 26.045 14.6809 26.2183Z" fill="white"/>
<path d="M9.52919 27.5649C8.20309 26.0512 7.16714 24.3067 6.47295 22.4185C5.77065 20.5236 5.40913 18.5196 5.40519 16.499C5.39498 14.4233 5.77996 12.3647 6.53962 10.4327C6.72647 9.95272 6.94007 9.48603 7.15361 9.09939C5.11898 9.68642 3.32632 10.9096 2.0388 12.5893C0.75128 14.269 0.0367137 16.3168 0 18.4321C0.0526282 21.0749 1.15061 23.5893 3.05386 25.4256C4.95711 27.262 7.51079 28.2708 10.1565 28.2315C9.94298 27.9915 9.72938 27.7916 9.52919 27.5649Z" fill="white"/>
<path d="M11.6379 9.5927C11.4922 9.78885 11.3584 9.99366 11.2375 10.206C11.3576 10.006 11.4911 9.83269 11.6379 9.5927Z" fill="white"/>
<path d="M24.0233 9.11277L24.437 9.40609C24.103 9.14291 23.7456 8.91085 23.3693 8.7128L22.9556 8.49948V5.64633C22.5302 5.44295 22.0822 5.29079 21.6209 5.19303V11.8593C22.2439 10.8026 23.0586 9.87117 24.0233 9.11277Z" fill="white"/>
<path d="M20.9938 13.2458H19.8193C19.7235 13.2461 19.6287 13.2266 19.5408 13.1885C19.4529 13.1503 19.3739 13.0944 19.3087 13.0243C19.2435 12.9542 19.1935 12.8713 19.162 12.7809C19.1304 12.6906 19.1179 12.5946 19.1253 12.4992L19.1252 5.19303C18.6147 5.30633 18.1212 5.48561 17.6571 5.72633L17.6572 8.61947L17.3769 8.7528C16.5035 9.21745 15.7355 9.85747 15.1214 10.6327L14.761 11.166C14.9468 12.5192 15.6226 13.7575 16.6603 14.6468C17.6981 15.5361 19.0261 16.0148 20.3932 15.9923C20.4514 15.08 20.6448 14.1814 20.9671 13.3258L20.9938 13.2458Z" fill="white"/>
<path d="M27.0263 13.1925C26.7058 12.2263 26.2179 11.3237 25.5849 10.526C25.7272 10.7127 25.874 10.9127 26.0253 11.126C25.837 12.4722 25.1639 13.7036 24.1321 14.5896C23.1002 15.4756 21.7586 15.9368 20.3981 15.9205C20.3981 16.1204 20.3931 16.3656 20.3931 16.5656C20.3984 17.9315 20.6937 19.2807 21.2597 20.5241C21.8257 21.7675 22.6493 22.8767 23.6763 23.7785C24.4424 23.3253 25.1436 22.7062 25.6916 22.0053C26.2976 21.1965 26.7707 20.2964 27.093 19.3388C27.4125 18.3618 27.5747 17.3402 27.5735 16.3123C27.5675 15.2491 27.3825 14.1945 27.0263 13.1925Z" fill="white"/>
<path d="M30.5897 6.76626C29.4223 6.76464 28.2629 6.95842 27.1597 7.33955C27.5503 7.66759 27.9163 8.02404 28.2542 8.40609C29.2006 9.50524 29.942 10.7651 30.443 12.1258C31.5099 14.8978 31.5099 17.9666 30.443 20.7386C29.9259 22.0972 29.156 23.3458 28.1741 24.4184C27.7653 24.8729 27.3188 25.2921 26.8395 25.6716C28.0574 26.14 29.3515 26.3795 30.6565 26.3783C31.9711 26.403 33.2776 26.1688 34.5016 25.689C35.7255 25.2092 36.8428 24.4933 37.7897 23.582C38.7366 22.6708 39.4945 21.5821 40.0201 20.3782C40.5457 19.1743 40.8288 17.8788 40.8531 16.5656C40.8271 15.2478 40.5406 13.9481 40.01 12.7413C39.4795 11.5345 38.7153 10.4444 37.7615 9.53369C36.8076 8.62298 35.683 7.90964 34.4522 7.43469C33.2214 6.95974 31.9087 6.73261 30.5897 6.76626Z" fill="white"/>
<path d="M26.0252 11.1659C25.8828 10.9526 25.736 10.7526 25.5847 10.566C25.4806 10.4354 25.3692 10.3107 25.2511 10.1927L25.1843 10.1127C24.9478 9.88092 24.6983 9.6628 24.4369 9.45936L24.0233 9.11277C23.0948 9.85472 22.228 10.838 21.6209 11.8593L21.6209 12.4992C21.6275 12.5479 21.6209 12.7125 21.701 12.6458C21.701 12.6458 21.701 12.6458 21.701 12.7125V12.7925L21.6209 12.8725C21.5594 12.9387 21.4852 12.9917 21.4026 13.0284C21.32 13.0651 21.0575 13.2446 20.9671 13.2458C20.6448 14.1014 20.4563 15.0082 20.3981 15.9205C21.7001 15.9104 23.1356 15.4268 24.1321 14.5896C25.1286 13.7523 25.7921 12.4457 26.0252 11.1659Z" fill="white"/>
<path d="M59.1373 7.8729V23.8719H56.5882V18.3256H48.5003V23.8852H45.9779V7.88623H48.5003V16.0857H56.5882V7.8729H59.1373Z" fill="white"/>
<path d="M61.126 23.8852V7.88625H68.0661C68.7599 7.87772 69.4458 8.03304 70.0681 8.33955C70.662 8.62222 71.193 9.0212 71.6296 9.51281C72.0786 9.99537 72.4359 10.5556 72.6839 11.166C72.9317 11.7665 73.0587 12.4098 73.0576 13.0592C73.0648 13.5879 72.9882 14.1144 72.8307 14.6191C72.6844 15.0904 72.4733 15.5391 72.2035 15.9524C71.9398 16.3709 71.6056 16.7408 71.2158 17.0456C70.8188 17.3589 70.3659 17.5942 69.8812 17.7389L73.6982 23.8319H70.8688L67.3454 18.2589H63.6485V23.8319L61.126 23.8852ZM63.6485 16.0724H68.0661C68.405 16.0816 68.7405 16.0035 69.0404 15.8457C69.3348 15.6804 69.5934 15.4584 69.8011 15.1924C70.0179 14.902 70.1848 14.5776 70.2949 14.2325C70.4152 13.8578 70.4738 13.466 70.4685 13.0726C70.4724 12.6802 70.3998 12.2907 70.2549 11.926C70.1298 11.5778 69.9396 11.2566 69.6944 10.9794C69.4674 10.715 69.1908 10.4976 68.8802 10.3394C68.5843 10.1824 68.2544 10.1 67.9193 10.0994H63.6485V16.0724Z" fill="white"/>
<path d="M72.7773 18.3122L75.233 16.0724H78.0224V18.3122H72.7773Z" fill="white"/>
<path d="M87.4047 23.9918C86.3385 24.0039 85.2838 23.7712 84.3217 23.3119C83.4179 22.8579 82.6075 22.2383 81.9328 21.4853C81.2549 20.7006 80.7299 19.7962 80.3846 18.8188C80.0288 17.8588 79.848 16.8428 79.8507 15.819C79.8448 14.7697 80.0396 13.7289 80.4246 12.7526C80.7924 11.8012 81.3306 10.9248 82.0128 10.1661C82.6876 9.40875 83.5095 8.79639 84.4285 8.36619C85.3803 7.91999 86.4201 7.69221 87.4715 7.69956C88.5493 7.7094 89.6081 7.98413 90.5545 8.49951C91.4645 8.95519 92.2761 9.58483 92.9434 10.3527C93.6078 11.1446 94.1273 12.0473 94.4783 13.0192C94.8329 13.9704 95.0137 14.9774 95.0121 15.9924C95.018 17.0417 94.8232 18.0825 94.4382 19.0588C94.0757 20.0127 93.5369 20.8901 92.85 21.6453C92.1692 22.3834 91.3539 22.9851 90.4477 23.4185C89.4893 23.8353 88.4493 24.0312 87.4047 23.9918ZM82.4266 15.8724C82.4108 16.6139 82.5191 17.3529 82.7469 18.0589C82.9613 18.742 83.3007 19.3794 83.7478 19.9388C84.176 20.4861 84.712 20.9398 85.3227 21.272C85.9682 21.5963 86.6823 21.7609 87.4047 21.752C88.1397 21.7684 88.8663 21.5938 89.5135 21.2453C90.1285 20.914 90.669 20.4603 91.1017 19.9121C91.5391 19.3337 91.8732 18.6842 92.0893 17.9922C92.5613 16.5909 92.5613 15.0738 92.0893 13.6725C91.8546 13.005 91.507 12.3827 91.0616 11.8326C90.6366 11.2823 90.0999 10.828 89.4868 10.4994C88.8409 10.1746 88.1278 10.0055 87.4047 10.0055C86.6817 10.0055 85.9686 10.1746 85.3227 10.4994C84.7085 10.8263 84.1714 11.2809 83.7478 11.8326C83.2945 12.3979 82.9546 13.0452 82.7469 13.7392C82.5291 14.4291 82.4211 15.1489 82.4266 15.8724Z" fill="white"/>
<path d="M98.8292 12.6059V23.8852H96.3067V7.88623H98.2953L107.451 19.4321V7.88623H110V23.8852H107.905L98.8292 12.6059Z" fill="white"/>
<line x1="118.5" y1="1" x2="118.5" y2="32" stroke="#E5EAEB" stroke-linecap="round"/>
<path d="M140.184 24H138.792V16.1611H129.448V24H128.066V7.64844H129.448V14.9932H138.792V7.64844H140.184V24ZM149.662 24.2246C148.628 24.2246 147.693 23.9701 146.854 23.4609C146.023 22.9518 145.375 22.2443 144.911 21.3384C144.447 20.425 144.215 19.403 144.215 18.2725V17.7896C144.215 16.6216 144.44 15.5697 144.889 14.6338C145.345 13.6979 145.978 12.9642 146.787 12.4326C147.595 11.8936 148.471 11.624 149.415 11.624C150.89 11.624 152.058 12.1294 152.919 13.1401C153.787 14.1434 154.221 15.5173 154.221 17.2617V18.0142H145.551V18.2725C145.551 19.6501 145.944 20.7993 146.731 21.7202C147.524 22.6336 148.52 23.0903 149.718 23.0903C150.437 23.0903 151.069 22.9593 151.616 22.6973C152.17 22.4352 152.671 22.016 153.121 21.4395L153.963 22.0796C152.975 23.5096 151.541 24.2246 149.662 24.2246ZM149.415 12.7695C148.404 12.7695 147.55 13.1401 146.854 13.8813C146.165 14.6226 145.746 15.6183 145.596 16.8687H152.885V16.7227C152.847 15.5547 152.514 14.6038 151.885 13.8701C151.256 13.1364 150.433 12.7695 149.415 12.7695ZM159.263 24H157.915V6.75H159.263V24ZM173.614 18.0479C173.614 19.9421 173.195 21.4469 172.357 22.5625C171.518 23.6706 170.395 24.2246 168.988 24.2246C167.325 24.2246 166.053 23.6406 165.169 22.4727V28.6719H163.833V11.8486H165.079L165.147 13.5669C166.023 12.2716 167.292 11.624 168.954 11.624C170.406 11.624 171.544 12.1743 172.368 13.2749C173.199 14.3755 173.614 15.9028 173.614 17.8569V18.0479ZM172.267 17.812C172.267 16.2622 171.949 15.0381 171.312 14.1396C170.676 13.2412 169.789 12.792 168.651 12.792C167.827 12.792 167.12 12.9904 166.528 13.3872C165.937 13.784 165.484 14.3605 165.169 15.1167V20.9453C165.491 21.6416 165.952 22.1732 166.551 22.54C167.149 22.9069 167.857 23.0903 168.673 23.0903C169.804 23.0903 170.683 22.6411 171.312 21.7427C171.949 20.8368 172.267 19.5265 172.267 17.812Z" fill="#E5EAEB"/>
</svg>
