<svg width="216" height="43" viewBox="0 0 216 43" fill="none" xmlns="http://www.w3.org/2000/svg">
<path fill-rule="evenodd" clip-rule="evenodd" d="M42.3682 21.3516C42.3682 25.4678 41.1476 29.4916 38.8607 32.9141C36.5738 36.3366 33.3235 39.0041 29.5206 40.5793C25.7177 42.1545 21.5331 42.5667 17.4959 41.7637C13.4588 40.9606 9.75046 38.9785 6.83984 36.0679C3.92923 33.1573 1.94708 29.4489 1.14405 25.4118C0.341011 21.3746 0.753158 17.19 2.32837 13.3871C3.90358 9.58425 6.57111 6.33386 9.99362 4.04701C13.4161 1.76015 17.4399 0.539551 21.5562 0.539551C27.0758 0.539551 32.3695 2.73224 36.2725 6.63525C40.1755 10.5383 42.3682 15.8319 42.3682 21.3516" fill="#AF4399"/>
<path fill-rule="evenodd" clip-rule="evenodd" d="M53.4573 17.2856C53.4573 20.2007 52.5929 23.0504 50.9733 25.4742C49.3538 27.898 47.0518 29.7872 44.3586 30.9028C41.6654 32.0183 38.7018 32.3102 35.8427 31.7415C32.9836 31.1728 30.3573 29.769 28.296 27.7077C26.2347 25.6464 24.8309 23.0201 24.2622 20.161C23.6935 17.3019 23.9854 14.3383 25.101 11.6451C26.2165 8.95189 28.1057 6.64994 30.5295 5.03038C32.9534 3.41082 35.803 2.54639 38.7182 2.54639C42.6272 2.54639 46.3762 4.09926 49.1403 6.86339C51.9045 9.62752 53.4573 13.3765 53.4573 17.2856" fill="#BB55A0"/>
<path d="M12.292 14.7236H30.82" stroke="white" stroke-width="1.31508" stroke-linecap="round" stroke-linejoin="round"/>
<path d="M12.292 21.3516H26.3908" stroke="white" stroke-width="1.31508" stroke-linecap="round" stroke-linejoin="round"/>
<path d="M12.292 27.9795H26.3908" stroke="white" stroke-width="1.31508" stroke-linecap="round" stroke-linejoin="round"/>
<path d="M82.4983 12.5786V29.5591H79.7981V23.6783H71.2598V29.5591H68.5596V12.5786H71.2385V21.2876H79.7767V12.5786H82.4983Z" fill="white"/>
<path d="M84.6113 29.5592V12.5787H91.9969C92.7365 12.5669 93.4682 12.7315 94.1315 13.059C94.741 13.3721 95.2846 13.7997 95.7324 14.3184C96.1951 14.8335 96.5571 15.4309 96.7997 16.0794C97.0606 16.7236 97.1947 17.4122 97.1946 18.1072C97.2198 18.6606 97.1623 19.2145 97.0238 19.7509C96.8698 20.2676 96.6435 20.7598 96.3514 21.213C96.0627 21.6574 95.702 22.0506 95.2842 22.3764C94.8787 22.6964 94.4198 22.9421 93.9287 23.1021L97.963 29.5592H94.9426L91.2071 23.6571H87.2902V29.5592H84.6113ZM87.2902 21.2877H91.9756C92.3476 21.2969 92.7155 21.2085 93.0429 21.0316C93.3637 20.8713 93.639 20.6327 93.8433 20.3379C94.0774 20.0326 94.2578 19.6897 94.377 19.3239C94.5064 18.9314 94.5713 18.5205 94.5691 18.1072C94.5739 17.6865 94.494 17.2691 94.3343 16.8799C94.1947 16.5133 93.9925 16.1739 93.7366 15.8766C93.4978 15.5969 93.2081 15.3651 92.8828 15.1936C92.5515 15.0284 92.1857 14.9442 91.8155 14.9481H87.2902V21.2877Z" fill="white"/>
<path d="M96.9707 23.657L99.5642 21.2876H102.521V23.657H96.9707Z" fill="white"/>
<path d="M112.467 29.6767C111.337 29.6948 110.218 29.4461 109.202 28.9509C108.237 28.4789 107.374 27.8226 106.661 27.0191C105.95 26.2072 105.396 25.2697 105.028 24.2549C104.646 23.2308 104.45 22.1462 104.452 21.053C104.455 19.9573 104.661 18.8716 105.061 17.8512C105.453 16.8398 106.024 15.9071 106.747 15.0976C107.463 14.2976 108.335 13.6513 109.308 13.1978C110.309 12.7261 111.404 12.4854 112.51 12.4934C113.643 12.477 114.763 12.7332 115.776 13.2405C116.739 13.7291 117.598 14.3996 118.305 15.215C119.002 16.036 119.55 16.9712 119.928 17.9792C120.313 19.0025 120.509 20.0876 120.504 21.1811C120.509 23.3925 119.691 25.5266 118.209 27.1685C117.489 27.957 116.623 28.5985 115.659 29.0576C114.655 29.5001 113.564 29.7117 112.467 29.6767ZM107.131 21.0744C107.132 21.8613 107.258 22.6431 107.505 23.3904C107.735 24.1123 108.097 24.7854 108.572 25.3755C109.026 25.949 109.597 26.4185 110.248 26.7523C110.935 27.0961 111.693 27.2751 112.462 27.2751C113.231 27.2751 113.989 27.0961 114.677 26.7523C115.332 26.4019 115.903 25.914 116.352 25.3221C116.82 24.7272 117.181 24.0555 117.42 23.337C117.653 22.6129 117.772 21.8566 117.772 21.0957C117.774 20.3016 117.647 19.5124 117.398 18.7584C117.159 18.0469 116.798 17.3824 116.331 16.7946C115.869 16.2352 115.299 15.7742 114.655 15.4391C113.972 15.0888 113.214 14.9061 112.446 14.9061C111.678 14.9061 110.921 15.0888 110.237 15.4391C109.58 15.7823 109.002 16.2585 108.54 16.8373C108.067 17.4253 107.706 18.0943 107.473 18.8117C107.252 19.545 107.151 20.309 107.174 21.0744H107.131Z" fill="white"/>
<path d="M124.549 17.6162V29.5697H121.87V12.5786H124.005L133.717 24.831V12.6H136.417V29.5591H134.155L124.549 17.6162Z" fill="white"/>
<path d="M159.15 25.3429C159.167 24.9214 159.087 24.5016 158.914 24.1164C158.742 23.7313 158.483 23.3913 158.158 23.123C157.065 22.3796 155.84 21.8508 154.55 21.5647C153.194 21.2449 151.899 20.7041 150.719 19.9638C150.195 19.6149 149.763 19.1441 149.461 18.5918C149.158 18.0395 148.994 17.4222 148.983 16.7927C148.971 16.1632 149.112 15.5403 149.394 14.9773C149.676 14.4143 150.09 13.9281 150.601 13.5601C151.787 12.7139 153.223 12.2894 154.678 12.3541C155.717 12.3362 156.746 12.5552 157.688 12.9945C158.53 13.3965 159.243 14.0247 159.748 14.8089C160.239 15.5838 160.495 16.4848 160.484 17.4023H159.043C159.064 16.8778 158.968 16.3551 158.764 15.8717C158.559 15.3884 158.25 14.9562 157.859 14.6061C156.963 13.8612 155.82 13.4803 154.657 13.5388C153.562 13.4805 152.478 13.7843 151.572 14.4033C151.209 14.6563 150.913 14.9953 150.712 15.39C150.511 15.7847 150.411 16.223 150.42 16.6659C150.41 17.0818 150.502 17.4937 150.688 17.8657C150.874 18.2378 151.149 18.5587 151.487 18.8005C152.489 19.4831 153.612 19.9685 154.796 20.2306C155.992 20.5239 157.149 20.9573 158.243 21.5221C158.951 21.905 159.555 22.4544 160.004 23.123C160.398 23.7645 160.602 24.5048 160.591 25.2575C160.607 25.8805 160.471 26.4979 160.193 27.0559C159.916 27.614 159.507 28.0958 159.001 28.4594C157.772 29.3167 156.292 29.7409 154.796 29.6654C153.669 29.6762 152.551 29.4621 151.508 29.0357C150.596 28.6705 149.81 28.0475 149.246 27.2427C148.729 26.4618 148.461 25.5427 148.477 24.6065H149.907C149.874 25.1586 149.977 25.7105 150.208 26.2132C150.439 26.7158 150.79 27.1538 151.231 27.4882C152.26 28.2373 153.513 28.6137 154.785 28.5554C155.917 28.6147 157.038 28.3119 157.987 27.6909C158.36 27.427 158.663 27.0741 158.866 26.6642C159.069 26.2542 159.166 25.8001 159.15 25.3429V25.3429Z" fill="white"/>
<path d="M175.128 13.8056H169.375V29.5054H167.956V13.8056H162.171V12.5996H175.17L175.128 13.8056Z" fill="white"/>
<path d="M186.057 24.756H178.383L176.643 29.5054H175.149L181.553 12.5996H182.908L189.312 29.5054H187.818L186.057 24.756ZM178.831 23.5499H185.608L182.182 14.3393L178.831 23.5499Z" fill="white"/>
<path d="M201.084 21.5968H193.207V29.5054H191.788V12.5996H202.258V13.8056H193.218V20.3908H201.094L201.084 21.5968Z" fill="white"/>
<path d="M214.457 21.5968H206.581V29.5054H205.15V12.5996H215.62V13.8056H206.581V20.3908H214.457V21.5968Z" fill="white"/>
</svg>
