<svg width="27" height="21" viewBox="0 0 27 21" fill="none" xmlns="http://www.w3.org/2000/svg">
<path fill-rule="evenodd" clip-rule="evenodd" d="M13.1085 15.7935H5.66573C5.23895 15.7935 4.89258 15.4392 4.89258 15.0025C4.89258 14.5658 5.23895 14.2114 5.66573 14.2114H13.1085C13.5353 14.2114 13.8817 14.5658 13.8817 15.0025C13.8817 15.4392 13.5353 15.7935 13.1085 15.7935Z" fill="#012D3E"/>
<path fill-rule="evenodd" clip-rule="evenodd" d="M13.1085 11.3775H5.66573C5.23895 11.3775 4.89258 11.0231 4.89258 10.5865C4.89258 10.1498 5.23895 9.79541 5.66573 9.79541H13.1085C13.5353 9.79541 13.8817 10.1498 13.8817 10.5865C13.8817 11.0231 13.5353 11.3775 13.1085 11.3775Z" fill="#012D3E"/>
<path fill-rule="evenodd" clip-rule="evenodd" d="M8.50575 6.97226H5.66573C5.23895 6.97226 4.89258 6.61786 4.89258 6.1812C4.89258 5.74453 5.23895 5.39014 5.66573 5.39014H8.50575C8.93253 5.39014 9.2789 5.74453 9.2789 6.1812C9.2789 6.61786 8.93253 6.97226 8.50575 6.97226Z" fill="#012D3E"/>
<path d="M5.38112 1.16694L13.3075 1.16272C15.5367 1.16272 17.2254 2.80292 17.4831 5.04695C17.5212 5.37846 17.7878 5.65028 18.1215 5.65028C18.4552 5.65028 18.7286 5.37913 18.7018 5.04651C18.457 2.00316 16.3505 0 13.3065 0L5.37596 0.00421893C2.11018 0.0242591 0 2.24028 0 5.65028V15.3497C0 18.7291 2.17822 21 5.41926 21L13.3497 20.9968C16.4185 20.977 18.4668 19.0182 18.7029 15.9536C18.7285 15.6209 18.4552 15.3497 18.1215 15.3497C17.7878 15.3497 17.5212 15.6215 17.4829 15.953C17.2255 18.1811 15.5497 19.8198 13.3446 19.8334L5.41823 19.8365C2.99466 19.8365 1.35602 17.8969 1.35602 15.3497V5.65028C1.35602 3.11994 2.98126 1.1817 5.38112 1.16694Z" fill="#012D3E"/>
<path d="M26.0857 5.38607L26.085 5.38692L19.4278 14.1954C19.4276 14.1956 19.4275 14.1958 19.4273 14.196C19.1744 14.5268 18.8061 14.7094 18.4126 14.7164C18.4124 14.7164 18.4122 14.7164 18.4121 14.7164L15.7626 14.7497C15.7601 14.7496 15.7585 14.7492 15.7575 14.7488C15.7563 14.7484 15.755 14.7477 15.7537 14.7466C15.7512 14.7446 15.7473 14.7401 15.7452 14.731C15.7452 14.731 15.7452 14.7309 15.7452 14.7309L15.1426 12.0577C15.055 11.6434 15.1445 11.2232 15.3942 10.9032L15.3942 10.9032L15.3969 10.8996L20.0801 4.6977L22.0139 6.27201C22.2012 6.42887 22.457 6.5127 22.7241 6.47696C23.2852 6.40512 23.6455 5.88743 23.591 5.35535L23.591 5.35534L23.5904 5.3502C23.5573 5.076 23.4249 4.85123 23.2564 4.68743L23.2482 4.67954L23.2395 4.67231C23.2187 4.65505 22.7352 4.25833 22.2584 3.86714L21.6044 3.33059L21.3898 3.15452L21.3298 3.10526L21.3139 3.09229L21.3099 3.08897L21.3097 3.08879C21.3096 3.08876 21.3096 3.08873 21.3096 3.08869C21.3086 3.0878 21.3062 3.08493 21.3056 3.07971C21.3054 3.07811 21.3054 3.07705 21.3055 3.07643L21.3073 3.07399L22.0543 2.08248C22.0545 2.08231 22.0546 2.08214 22.0547 2.08197C22.3518 1.69194 22.7511 1.48663 23.1762 1.45709C23.604 1.42735 24.0787 1.57489 24.5165 1.93111L24.5166 1.93121L25.6343 2.83968L25.6343 2.83969L25.636 2.84106C26.048 3.17073 26.3133 3.59775 26.4029 4.03366L26.4029 4.03366L26.4034 4.03639C26.5055 4.50959 26.3995 4.97408 26.0857 5.38607Z" stroke="#012D3E" stroke-width="0.572727"/>
</svg>
